<?xml version="1.0" encoding="utf-8"?>
<!-- Generator: Adobe Illustrator 17.1.0, SVG Export Plug-In . SVG Version: 6.00 Build 0)  -->
<!DOCTYPE svg PUBLIC "-//W3C//DTD SVG 1.1//EN" "http://www.w3.org/Graphics/SVG/1.1/DTD/svg11.dtd">
<svg version="1.1" id="Layer_1" xmlns="http://www.w3.org/2000/svg" xmlns:xlink="http://www.w3.org/1999/xlink" x="0px" y="0px"
	 viewBox="0 0 250 70" enable-background="new 0 0 250 70" xml:space="preserve">
<g>
	<polygon fill="#0060A9" points="16.9,13.9 14.2,19.7 10.5,14.1 10.5,13.9 5.9,13.9 0.5,25.5 5.1,25.5 7.9,19.6 11.8,25.5 
		16.2,25.5 21.5,13.9 	"/>
	<polygon fill="#0060A9" points="0.5,25.5 5.9,13.9 10.4,13.9 14.2,19.7 16.9,13.9 21.5,13.9 16.2,25.5 11.8,25.5 7.9,19.6 
		5.1,25.5 	"/>
	<polygon fill="#0060A9" points="225.1,25.5 230.5,13.9 234.9,13.9 238.7,19.7 241.5,13.9 246.1,13.9 240.6,25.5 236.4,25.5 
		232.4,19.6 229.7,25.5 	"/>
	<path fill="#0060A9" d="M142,25.1c-0.9,0.1-1.4,0.3-2.5,0.4c-1.2,0.1-1.8,0.1-2.8,0.1c-0.9,0-1.7-0.1-2.5-0.3
		c-0.7-0.1-1.3-0.4-1.8-0.7c-0.9-0.5-1.4-1.3-1.7-2.1c-0.3-0.9-0.1-1.8,0.4-2.9c0.4-0.9,0.9-1.7,1.6-2.4c0.7-0.7,1.6-1.3,2.5-2
		c1.1-0.5,2.1-1.1,3.2-1.3c1.1-0.3,2.2-0.4,3.4-0.4c0.9,0,1.7,0.1,2.5,0.3c0.8,0.1,1.6,0.4,2.2,0.7l-1.2,2.8
		c-0.7-0.3-1.2-0.5-1.8-0.7c-0.7-0.1-1.3-0.3-2-0.3c-1.3,0-2.4,0.3-3.4,0.9c-1.1,0.5-1.7,1.3-2.1,2.4c-0.4,0.9-0.4,1.7,0,2.2
		c0.4,0.5,1.2,0.9,2.2,0.9c0.1,0,0.4,0,0.5,0c0.3,0,0.3,0,0.5-0.1l0.7-1.3h-1.4l1.2-2.4h5.3L142,25.1L142,25.1z"/>
	<path fill="#0060A9" d="M115.2,16h1.1c0.8,0,1.3,0.1,1.6,0.4c0.3,0.3,0.3,0.7,0,1.2c-0.3,0.5-0.7,0.9-1.1,1.2
		c-0.5,0.3-1.2,0.4-2,0.4h-0.9L115.2,16L115.2,16z M110.9,25.5l2-4.1h1.6c2,0,3.7-0.3,5-0.9c1.3-0.7,2.2-1.6,2.9-2.9
		c0.5-1.3,0.4-2.1-0.3-2.8c-0.8-0.7-2.1-0.9-4.2-0.9h-6.3l-5.4,11.6H110.9L110.9,25.5z"/>
	<polygon fill="#0060A9" points="60,25.5 65.7,13.9 70.5,13.9 68.6,18.1 73.6,18.1 75.7,13.9 80.7,13.9 75,25.5 70,25.5 72.1,21.2 
		67,21.2 64.9,25.5 	"/>
	<polygon fill="#0060A9" points="50.3,25.5 54.7,17 50.3,17 51.8,13.9 65,13.9 63.5,17 59.3,17 55,25.5 	"/>
	<path fill="#0060A9" d="M26.1,17.9c0.8-0.5,1.6-0.8,2.4-0.8c0.8,0,1.4,0.3,1.7,0.8c0.4,0.5,0.4,1.1,0,1.8c-0.3,0.8-0.8,1.3-1.6,1.8
		c-0.8,0.5-1.6,0.8-2.4,0.8c-0.8,0-1.4-0.3-1.7-0.8s-0.4-1.1,0-1.8C25,18.9,25.5,18.3,26.1,17.9L26.1,17.9z M19.3,22.1
		c0,0.7,0.4,1.3,0.8,2c0.5,0.5,1.2,1.1,2,1.3s1.7,0.4,2.8,0.4c1.1,0,2.1-0.1,3.2-0.4c1.1-0.3,2.1-0.7,3-1.3c1.1-0.5,1.8-1.2,2.5-2
		c0.7-0.7,1.2-1.4,1.6-2.4s0.5-1.7,0.5-2.4s-0.4-1.3-0.8-2c-0.5-0.5-1.1-0.9-2-1.3c-0.8-0.3-1.7-0.4-2.9-0.4c-1.1,0-2.1,0.1-3.2,0.4
		c-1.1,0.3-2,0.7-3,1.3c-1.1,0.5-1.8,1.2-2.5,2c-0.7,0.7-1.2,1.4-1.6,2.4C19.4,20.5,19.3,21.3,19.3,22.1L19.3,22.1z"/>
	<path fill="#0060A9" d="M99.2,17.9c0.8-0.5,1.6-0.8,2.4-0.8c0.8,0,1.4,0.3,1.7,0.8c0.3,0.5,0.4,1.1,0,1.8c-0.3,0.7-0.8,1.3-1.6,1.8
		s-1.6,0.8-2.4,0.8s-1.4-0.3-1.7-0.8c-0.3-0.5-0.4-1.1,0-1.8C97.9,18.9,98.4,18.3,99.2,17.9L99.2,17.9z M92.4,22.1
		c0,0.7,0.4,1.3,0.8,2c0.5,0.5,1.2,1.1,2,1.3s1.7,0.4,2.8,0.4c1.1,0,2.1-0.1,3.2-0.4s2.1-0.7,3-1.3c1.1-0.5,1.8-1.2,2.5-2
		c0.7-0.7,1.2-1.4,1.6-2.4c0.4-0.9,0.5-1.7,0.5-2.4s-0.4-1.3-0.8-2c-0.5-0.5-1.1-0.9-2-1.3c-0.9-0.3-1.8-0.4-2.9-0.4
		s-2.1,0.1-3.2,0.4s-2,0.7-3,1.3c-1.1,0.5-1.8,1.2-2.5,2c-0.7,0.7-1.2,1.4-1.6,2.4C92.4,20.5,92.2,21.3,92.4,22.1L92.4,22.1z"/>
	<path fill="#0060A9" d="M162.8,13.9h4.9l-2.9,6.2c-0.4,0.8-0.4,1.4-0.3,1.8c0.3,0.4,0.8,0.7,1.6,0.7c0.8,0,1.6-0.3,2.2-0.7
		c0.7-0.4,1.1-1.1,1.4-1.8l2.9-6.2h4.9l-2.9,6.3c-0.8,1.8-2.1,3.2-3.7,4.1c-1.7,0.9-3.7,1.3-6.2,1.3c-2.4,0-4.1-0.4-4.9-1.3
		c-0.8-0.9-0.8-2.2,0-4.1L162.8,13.9L162.8,13.9z"/>
	<path fill="#0060A9" d="M220.3,17l-0.1,4.3h-3.9L220.3,17L220.3,17z M212.3,25.5l1.8-2h6v2h4.6l-0.7-11.6h-4.9l-11.7,11.6H212.3
		L212.3,25.5z"/>
	<path fill="#0060A9" d="M49.7,14.7c-0.8-0.5-2.2-0.8-4.3-0.8h-6.4l-5.6,11.6h4.9l2.4-4.9c0,0,1.3,0,1.4,0c1.2,0,1.7,1.4,1.7,3.8
		c0,0.3,0,0.7,0,1.1h4.6L47.8,22c0-0.4-0.1-1.1-0.3-1.3c-0.1-0.3-0.4-0.4-0.7-0.5c0.9-0.3,1.3-0.7,1.8-1.1c0.5-0.5,0.9-1.1,1.2-1.6
		C50.4,16.2,50.3,15.2,49.7,14.7L49.7,14.7z M45.5,17.5c-0.1,0.4-0.7,0.8-1.2,1.1c-0.4,0.1-1.4,0.4-2.2,0.4h-0.9l1.4-3.2h0.9
		c0.8,0,1.4,0.3,1.7,0.4C45.5,16.4,45.6,16.8,45.5,17.5L45.5,17.5z"/>
	<path fill="#0060A9" d="M92.9,14.7c-0.8-0.5-2.2-0.8-4.3-0.8h-6.4l-5.5,11.6h4.9l2.4-4.9c0,0,1.3,0,1.4,0c1.2,0,1.7,1.4,1.7,3.8
		c0,0.3,0,0.7,0,1.1h4.6L91.2,22c0-0.4-0.1-1.1-0.3-1.3c-0.1-0.3-0.4-0.4-0.7-0.5c0.9-0.3,1.3-0.7,1.8-1.1c0.5-0.5,0.9-1.1,1.2-1.6
		C93.8,16.2,93.7,15.2,92.9,14.7L92.9,14.7z M88.8,17.5c-0.1,0.4-0.7,0.8-1.2,1.1c-0.4,0.1-1.4,0.4-2.2,0.4h-0.9l1.4-3.2h0.9
		c0.8,0,1.4,0.3,1.7,0.4C88.8,16.4,88.9,16.8,88.8,17.5L88.8,17.5z"/>
	<path fill="#0060A9" d="M159.8,14.7c-0.8-0.5-2.2-0.8-4.3-0.8H149l-5.6,11.6h4.9l2.4-4.9c0,0,1.3,0,1.4,0c1.2,0,1.7,1.4,1.7,3.8
		c0,0.3,0,0.7,0,1.1h4.6l-0.1-3.5c0-0.4-0.1-1.1-0.3-1.3s-0.4-0.4-0.7-0.5c0.9-0.3,1.3-0.7,1.8-1.1c0.5-0.5,0.9-1.1,1.2-1.6
		C160.7,16.2,160.6,15.2,159.8,14.7L159.8,14.7z M155.7,17.5c-0.1,0.4-0.7,0.8-1.2,1.1c-0.4,0.3-1.4,0.4-2.4,0.4h-0.9l1.4-3.2h0.9
		c0.8,0,1.4,0.3,1.7,0.4C155.7,16.4,155.8,16.8,155.7,17.5L155.7,17.5z"/>
	<polygon fill="#0060A9" points="173.3,25.5 178.7,13.9 183.2,13.9 184.7,18.5 190.4,13.9 194.8,13.9 189.5,25.5 184.9,25.5 
		187.9,18.9 182.2,23.7 180.8,19.2 177.8,25.5 	"/>
	<polygon fill="#0060A9" points="190.8,25.5 196.3,13.9 200.8,13.9 202.2,18.5 207.9,13.9 212.5,13.9 207.1,25.5 202.3,25.5 
		205.5,18.9 199.7,23.7 198.4,19.2 195.4,25.5 	"/>
	<path fill="#0060A9" d="M25.1,55.8L24.8,56l0.7,0.9l0.3-0.1c39.8-27.9,152.2-27.2,206-26.9h17.7v-1.2h-17.7
		C177.8,28.4,65.2,27.7,25.1,55.8L25.1,55.8z"/>
	<path fill="#0060A9" d="M25.4,56.1l0.4,0.5c39.7-28,152-27.5,206-27.1h17.5V29h-17.5C177.8,28.7,65.3,28,25.4,56.1L25.4,56.1z"/>
</g>
</svg>
