<?xml version="1.0" encoding="utf-8"?>
<!-- Generator: Adobe Illustrator 19.2.1, SVG Export Plug-In . SVG Version: 6.00 Build 0)  -->
<svg version="1.1" id="Layer_1" xmlns="http://www.w3.org/2000/svg" xmlns:xlink="http://www.w3.org/1999/xlink" x="0px" y="0px"
	 viewBox="0 0 150 22" style="enable-background:new 0 0 150 22;" xml:space="preserve">
<style type="text/css">
	.st0{fill:#808080;}
</style>
<g>
	<path class="st0" d="M0,5h4v2.1c1-0.7,1.7-1.2,2.4-1.5c0.7-0.3,1.4-0.4,2.2-0.4c1.6,0,2.9,0.5,4,1.6C13.5,7.6,14,9,14,10.7V21h-4
		v-7c0-1.8-0.1-3-0.2-3.6c-0.2-0.6-0.5-1-0.9-1.3c-0.4-0.3-1-0.4-1.6-0.4c-0.8,0-1.5,0.3-2,0.8c-0.6,0.5-0.9,1.2-1.2,2.1
		C4,12,4,13,4,14.6V21H0V5.6V5z"/>
	<path class="st0" d="M25.1,8.8c-1.2,0-2.2,0.4-3,1.2s-1.2,1.9-1.2,3.1c0,1.3,0.4,2.4,1.2,3.2c0.8,0.8,1.8,1.2,3,1.2
		s2.3-0.4,3.1-1.2c0.8-0.8,1.2-1.9,1.2-3.2S29,10.8,28.2,10C27.4,9.2,26.4,8.8,25.1,8.8z M25.1,5.2c1.5,0,2.9,0.4,4.2,1.1
		s2.3,1.7,3,2.9s1.1,2.5,1.1,3.9s-0.4,2.7-1.1,4c-0.7,1.2-1.7,2.2-3,2.9c-1.3,0.7-2.7,1-4.2,1c-2.2,0-4.2-0.8-5.8-2.3
		c-1.6-1.5-2.4-3.4-2.4-5.6c0-2.3,0.9-4.3,2.7-5.9C21.2,5.9,23,5.2,25.1,5.2z"/>
	<polygon class="st0" points="34.9,5 38.9,5 42.9,13.9 46.8,5 50.8,5 44.1,21 41.6,21 	"/>
	<path class="st0" d="M60.5,8.7c-1.2,0-2.2,0.4-3,1.2s-1.2,1.9-1.2,3.2s0.4,2.4,1.2,3.2s1.8,1.3,3,1.3s2.3-0.4,3.1-1.2
		c0.8-0.8,1.2-1.9,1.2-3.2s-0.4-2.4-1.2-3.2C62.8,9.1,61.8,8.7,60.5,8.7z M65,5h3v16h-3v-2c-1,0.7-1.7,1.2-2.5,1.5S60.8,21,59.9,21
		c-2,0-3.8-0.8-5.3-2.3s-2.2-3.4-2.2-5.6c0-2.3,0.7-4.2,2.1-5.7c1.4-1.5,3.2-2.2,5.2-2.2c0.9,0,2,0.2,2.8,0.5
		C63.4,6.1,64,6.6,65,7.2V5L65,5z"/>
	<path class="st0" d="M88,8.7l-1.6,1C85,7.9,83.2,7,80.8,7c-1.9,0-3.5,0.6-4.8,1.8s-1.9,2.6-1.9,4.3c0,1.1,0.3,2.1,0.9,3.1
		s1.4,1.7,2.4,2.2s2.1,0.8,3.4,0.8c2.3,0,4.2-0.9,5.6-2.6l1.6,1c-0.7,1.1-1.8,1.9-3,2.5c-1.3,0.6-2.7,0.9-4.3,0.9
		c-2.5,0-4.5-0.8-6.2-2.3c-1.6-1.5-2.4-3.4-2.4-5.5c0-1.5,0.4-2.8,1.1-4.1C74,7.9,75,6.9,76.4,6.2c1.3-0.7,2.8-1.1,4.5-1.1
		c1,0,2,0.2,3,0.5s1.8,0.7,2.5,1.2C87,7.3,87.5,8,88,8.7z"/>
	<path class="st0" d="M99.3,7.1c-1.7,0-3.1,0.6-4.3,1.8c-1.2,1.2-1.8,2.6-1.8,4.3c0,1.1,0.3,2.1,0.8,3c0.6,0.9,1.3,1.7,2.2,2.2
		c0.9,0.5,2,0.8,3.1,0.8s2.1-0.3,3.1-0.8c0.9-0.5,1.7-1.2,2.2-2.2c0.5-0.9,0.8-2,0.8-3c0-1.7-0.6-3.1-1.8-4.3
		C102.4,7.7,101,7.1,99.3,7.1z M99.3,5.2c2.4,0,4.4,0.8,6,2.5c1.4,1.5,2.2,3.3,2.2,5.4s-0.8,3.9-2.3,5.5s-3.5,2.4-5.9,2.4
		s-4.4-0.8-5.9-2.4s-2.3-3.4-2.3-5.5s0.7-3.9,2.2-5.4C94.9,6,96.9,5.2,99.3,5.2z"/>
	<path class="st0" d="M118.7,7.1c-1.1,0-2.2,0.3-3.1,0.8s-1.7,1.3-2.3,2.2c-0.6,1-0.8,2-0.8,3c0,1.1,0.3,2.1,0.8,3
		c0.6,1,1.3,1.7,2.3,2.3c1,0.5,2,0.8,3.1,0.8s2.1-0.3,3.1-0.8s1.7-1.3,2.3-2.2c0.5-0.9,0.8-1.9,0.8-3.1c0-1.7-0.6-3.2-1.8-4.4
		C122,7.7,120.5,7.1,118.7,7.1z M127,5.6V21h-2v-3c-1,1-1.9,1.7-2.9,2.2c-1.1,0.5-2.2,0.7-3.5,0.7c-2.2,0-4.1-0.8-5.7-2.3
		s-2.4-3.4-2.4-5.6s0.8-4,2.4-5.6c1.6-1.5,3.5-2.3,5.7-2.3c1.3,0,2.5,0.3,3.6,0.8c1,0.5,1.8,1.3,2.8,2.4V5h1.8L127,5.6z"/>
	<path class="st0" d="M139.2,7.2l-1.3,1.3c-1.1-1-2.1-1.5-3.2-1.5c-0.7,0-1.2,0.2-1.7,0.6s-0.7,0.9-0.7,1.5c0,0.5,0.2,1,0.6,1.4
		c0.4,0.5,1.2,1,2.4,1.6c1.5,0.7,2.5,1.5,3.1,2.2c0.5,0.7,0.8,1.5,0.8,2.4c0,1.2-0.5,2.3-1.4,3.1c-0.9,0.9-2,1.3-3.4,1.3
		c-0.9,0-1.8-0.2-2.6-0.6s-1.5-0.9-2-1.6l1.3-1.4c1,1.1,2.1,1.7,3.3,1.7c0.8,0,1.5-0.2,2.1-0.7s0.9-1.1,0.9-1.8c0-0.6-0.2-1-0.6-1.5
		c-0.4-0.4-1.2-1-2.5-1.6c-1.4-0.7-2.4-1.4-2.9-2.1c-0.5-0.7-0.8-1.5-0.8-2.3c0-1.1,0.4-2.1,1.2-2.8c0.8-0.8,1.8-1.1,3.1-1.1
		C136.3,5.2,137.8,5.9,139.2,7.2z"/>
	<polygon class="st0" points="145,0 147,0 147,5 150,5 150,7 147,7 147,21 145,21 145,7 142,7 142,5 145,5 	"/>
</g>
</svg>
